<mxfile host="app.diagrams.net" modified="2021-09-06T17:58:49.086Z" agent="5.0 (Windows NT 10.0; Win64; x64) AppleWebKit/537.36 (KHTML, like Gecko) Chrome/90.0.4430.93 Safari/537.36" etag="HV42w41e4nKFVDSqwIu_" version="15.0.6" type="github">
  <diagram id="GB4uPWHtyg2-fPTGRqf6" name="Page-1">
    <mxGraphModel dx="1420" dy="746" grid="1" gridSize="10" guides="1" tooltips="1" connect="1" arrows="1" fold="1" page="1" pageScale="1" pageWidth="827" pageHeight="1169" math="0" shadow="0">
      <root>
        <mxCell id="0" />
        <mxCell id="1" parent="0" />
        <mxCell id="nkLRMiGtPnidvyDucg6m-3" value="" style="edgeStyle=orthogonalEdgeStyle;rounded=0;orthogonalLoop=1;jettySize=auto;html=1;" edge="1" parent="1" source="nkLRMiGtPnidvyDucg6m-1" target="nkLRMiGtPnidvyDucg6m-2">
          <mxGeometry relative="1" as="geometry" />
        </mxCell>
        <mxCell id="nkLRMiGtPnidvyDucg6m-1" value="开始" style="rounded=1;whiteSpace=wrap;html=1;" vertex="1" parent="1">
          <mxGeometry x="366" y="90" width="96" height="40" as="geometry" />
        </mxCell>
        <mxCell id="nkLRMiGtPnidvyDucg6m-7" value="" style="edgeStyle=orthogonalEdgeStyle;rounded=0;orthogonalLoop=1;jettySize=auto;html=1;" edge="1" parent="1" source="nkLRMiGtPnidvyDucg6m-2" target="nkLRMiGtPnidvyDucg6m-4">
          <mxGeometry relative="1" as="geometry" />
        </mxCell>
        <mxCell id="nkLRMiGtPnidvyDucg6m-2" value="获取ViewStub的parent" style="rounded=0;whiteSpace=wrap;html=1;" vertex="1" parent="1">
          <mxGeometry x="354" y="170" width="120" height="50" as="geometry" />
        </mxCell>
        <mxCell id="nkLRMiGtPnidvyDucg6m-6" value="" style="edgeStyle=orthogonalEdgeStyle;rounded=0;orthogonalLoop=1;jettySize=auto;html=1;" edge="1" parent="1" source="nkLRMiGtPnidvyDucg6m-4" target="nkLRMiGtPnidvyDucg6m-5">
          <mxGeometry relative="1" as="geometry" />
        </mxCell>
        <mxCell id="nkLRMiGtPnidvyDucg6m-14" value="" style="edgeStyle=orthogonalEdgeStyle;rounded=0;orthogonalLoop=1;jettySize=auto;html=1;" edge="1" parent="1" source="nkLRMiGtPnidvyDucg6m-4" target="nkLRMiGtPnidvyDucg6m-13">
          <mxGeometry relative="1" as="geometry" />
        </mxCell>
        <mxCell id="nkLRMiGtPnidvyDucg6m-4" value="parent != null &amp;amp;&amp;amp;&lt;br&gt;parent is ViewGroup" style="rhombus;whiteSpace=wrap;html=1;" vertex="1" parent="1">
          <mxGeometry x="314" y="260" width="199" height="70" as="geometry" />
        </mxCell>
        <mxCell id="nkLRMiGtPnidvyDucg6m-5" value="throw IllegalStateException" style="rounded=0;whiteSpace=wrap;html=1;" vertex="1" parent="1">
          <mxGeometry x="620" y="272.5" width="170" height="45" as="geometry" />
        </mxCell>
        <mxCell id="nkLRMiGtPnidvyDucg6m-8" value="N" style="text;html=1;align=center;verticalAlign=middle;resizable=0;points=[];autosize=1;strokeColor=none;fillColor=none;" vertex="1" parent="1">
          <mxGeometry x="513" y="270" width="20" height="20" as="geometry" />
        </mxCell>
        <mxCell id="nkLRMiGtPnidvyDucg6m-12" value="Y" style="text;html=1;align=center;verticalAlign=middle;resizable=0;points=[];autosize=1;strokeColor=none;fillColor=none;" vertex="1" parent="1">
          <mxGeometry x="414" y="330" width="20" height="20" as="geometry" />
        </mxCell>
        <mxCell id="nkLRMiGtPnidvyDucg6m-17" value="" style="edgeStyle=orthogonalEdgeStyle;rounded=0;orthogonalLoop=1;jettySize=auto;html=1;" edge="1" parent="1" source="nkLRMiGtPnidvyDucg6m-13" target="nkLRMiGtPnidvyDucg6m-16">
          <mxGeometry relative="1" as="geometry" />
        </mxCell>
        <mxCell id="nkLRMiGtPnidvyDucg6m-23" value="" style="edgeStyle=orthogonalEdgeStyle;rounded=0;orthogonalLoop=1;jettySize=auto;html=1;" edge="1" parent="1" source="nkLRMiGtPnidvyDucg6m-13" target="nkLRMiGtPnidvyDucg6m-22">
          <mxGeometry relative="1" as="geometry" />
        </mxCell>
        <mxCell id="nkLRMiGtPnidvyDucg6m-13" value="ViewStub的layout执行的xml是否存在" style="rhombus;whiteSpace=wrap;html=1;" vertex="1" parent="1">
          <mxGeometry x="286.25" y="380" width="255.5" height="60" as="geometry" />
        </mxCell>
        <mxCell id="nkLRMiGtPnidvyDucg6m-16" value="throw IllegalArgumentException" style="rounded=0;whiteSpace=wrap;html=1;" vertex="1" parent="1">
          <mxGeometry x="610" y="387.5" width="190" height="45" as="geometry" />
        </mxCell>
        <mxCell id="nkLRMiGtPnidvyDucg6m-18" value="N" style="text;html=1;align=center;verticalAlign=middle;resizable=0;points=[];autosize=1;strokeColor=none;fillColor=none;" vertex="1" parent="1">
          <mxGeometry x="541.75" y="387.5" width="20" height="20" as="geometry" />
        </mxCell>
        <mxCell id="nkLRMiGtPnidvyDucg6m-26" value="" style="edgeStyle=orthogonalEdgeStyle;rounded=0;orthogonalLoop=1;jettySize=auto;html=1;" edge="1" parent="1" source="nkLRMiGtPnidvyDucg6m-22" target="nkLRMiGtPnidvyDucg6m-25">
          <mxGeometry relative="1" as="geometry" />
        </mxCell>
        <mxCell id="nkLRMiGtPnidvyDucg6m-22" value="使用LayoutInflater加载视图，但是不将其添加到viewParent中" style="rounded=0;whiteSpace=wrap;html=1;" vertex="1" parent="1">
          <mxGeometry x="319" y="500" width="190" height="45" as="geometry" />
        </mxCell>
        <mxCell id="nkLRMiGtPnidvyDucg6m-24" value="Y" style="text;html=1;align=center;verticalAlign=middle;resizable=0;points=[];autosize=1;strokeColor=none;fillColor=none;" vertex="1" parent="1">
          <mxGeometry x="414" y="440" width="20" height="20" as="geometry" />
        </mxCell>
        <mxCell id="nkLRMiGtPnidvyDucg6m-29" value="" style="edgeStyle=orthogonalEdgeStyle;rounded=0;orthogonalLoop=1;jettySize=auto;html=1;" edge="1" parent="1" source="nkLRMiGtPnidvyDucg6m-25" target="nkLRMiGtPnidvyDucg6m-28">
          <mxGeometry relative="1" as="geometry" />
        </mxCell>
        <mxCell id="nkLRMiGtPnidvyDucg6m-25" value="使用inflated view替换parent中ViewStub的位置" style="rounded=0;whiteSpace=wrap;html=1;" vertex="1" parent="1">
          <mxGeometry x="319" y="590" width="190" height="45" as="geometry" />
        </mxCell>
        <mxCell id="nkLRMiGtPnidvyDucg6m-27" value="inflated view" style="text;html=1;align=center;verticalAlign=middle;resizable=0;points=[];autosize=1;strokeColor=none;fillColor=none;" vertex="1" parent="1">
          <mxGeometry x="414" y="550" width="80" height="20" as="geometry" />
        </mxCell>
        <mxCell id="nkLRMiGtPnidvyDucg6m-31" value="" style="edgeStyle=orthogonalEdgeStyle;rounded=0;orthogonalLoop=1;jettySize=auto;html=1;" edge="1" parent="1" source="nkLRMiGtPnidvyDucg6m-28" target="nkLRMiGtPnidvyDucg6m-30">
          <mxGeometry relative="1" as="geometry" />
        </mxCell>
        <mxCell id="nkLRMiGtPnidvyDucg6m-28" value="将inflated view保存在ViewStub对象中的一个弱引用属性mInflatedViewRef中" style="rounded=0;whiteSpace=wrap;html=1;" vertex="1" parent="1">
          <mxGeometry x="319" y="680" width="190" height="45" as="geometry" />
        </mxCell>
        <mxCell id="nkLRMiGtPnidvyDucg6m-37" value="" style="edgeStyle=orthogonalEdgeStyle;rounded=0;orthogonalLoop=1;jettySize=auto;html=1;" edge="1" parent="1" source="nkLRMiGtPnidvyDucg6m-30" target="nkLRMiGtPnidvyDucg6m-34">
          <mxGeometry relative="1" as="geometry" />
        </mxCell>
        <mxCell id="nkLRMiGtPnidvyDucg6m-30" value="调用OnInflateListener将其进行通知回调" style="rounded=0;whiteSpace=wrap;html=1;" vertex="1" parent="1">
          <mxGeometry x="319" y="770" width="190" height="45" as="geometry" />
        </mxCell>
        <mxCell id="nkLRMiGtPnidvyDucg6m-34" value="结束" style="rounded=1;whiteSpace=wrap;html=1;" vertex="1" parent="1">
          <mxGeometry x="366" y="860" width="96" height="40" as="geometry" />
        </mxCell>
        <mxCell id="nkLRMiGtPnidvyDucg6m-38" value="ViewStub.inflated的执行流程" style="text;html=1;align=center;verticalAlign=middle;resizable=0;points=[];autosize=1;strokeColor=none;fillColor=none;" vertex="1" parent="1">
          <mxGeometry x="95" y="100" width="170" height="20" as="geometry" />
        </mxCell>
        <mxCell id="nkLRMiGtPnidvyDucg6m-39" value="ViewStub.setVisibility(Int)的执行流程" style="text;html=1;align=center;verticalAlign=middle;resizable=0;points=[];autosize=1;strokeColor=none;fillColor=none;" vertex="1" parent="1">
          <mxGeometry x="880" y="100" width="210" height="20" as="geometry" />
        </mxCell>
        <mxCell id="nkLRMiGtPnidvyDucg6m-43" value="" style="edgeStyle=orthogonalEdgeStyle;rounded=0;orthogonalLoop=1;jettySize=auto;html=1;" edge="1" parent="1" source="nkLRMiGtPnidvyDucg6m-40" target="nkLRMiGtPnidvyDucg6m-42">
          <mxGeometry relative="1" as="geometry" />
        </mxCell>
        <mxCell id="nkLRMiGtPnidvyDucg6m-40" value="开始" style="rounded=1;whiteSpace=wrap;html=1;" vertex="1" parent="1">
          <mxGeometry x="1193" y="120" width="96" height="40" as="geometry" />
        </mxCell>
        <mxCell id="nkLRMiGtPnidvyDucg6m-62" value="" style="edgeStyle=orthogonalEdgeStyle;rounded=0;orthogonalLoop=1;jettySize=auto;html=1;" edge="1" parent="1" source="nkLRMiGtPnidvyDucg6m-42" target="nkLRMiGtPnidvyDucg6m-61">
          <mxGeometry relative="1" as="geometry" />
        </mxCell>
        <mxCell id="nkLRMiGtPnidvyDucg6m-42" value="mInflatedViewRef是否为空" style="rhombus;whiteSpace=wrap;html=1;" vertex="1" parent="1">
          <mxGeometry x="1141" y="210" width="199" height="60" as="geometry" />
        </mxCell>
        <mxCell id="nkLRMiGtPnidvyDucg6m-45" value="" style="endArrow=classic;html=1;exitX=1;exitY=0.5;exitDx=0;exitDy=0;entryX=0.5;entryY=0;entryDx=0;entryDy=0;edgeStyle=orthogonalEdgeStyle;" edge="1" parent="1" source="nkLRMiGtPnidvyDucg6m-42" target="nkLRMiGtPnidvyDucg6m-47">
          <mxGeometry width="50" height="50" relative="1" as="geometry">
            <mxPoint x="1140" y="280" as="sourcePoint" />
            <mxPoint x="1485" y="280" as="targetPoint" />
          </mxGeometry>
        </mxCell>
        <mxCell id="nkLRMiGtPnidvyDucg6m-46" value="N(已经渲染过inflated view)" style="text;html=1;align=center;verticalAlign=middle;resizable=0;points=[];autosize=1;strokeColor=none;fillColor=none;" vertex="1" parent="1">
          <mxGeometry x="1330" y="210" width="160" height="20" as="geometry" />
        </mxCell>
        <mxCell id="nkLRMiGtPnidvyDucg6m-49" value="" style="edgeStyle=orthogonalEdgeStyle;rounded=0;orthogonalLoop=1;jettySize=auto;html=1;" edge="1" parent="1" source="nkLRMiGtPnidvyDucg6m-47" target="nkLRMiGtPnidvyDucg6m-48">
          <mxGeometry relative="1" as="geometry" />
        </mxCell>
        <mxCell id="nkLRMiGtPnidvyDucg6m-52" value="" style="edgeStyle=orthogonalEdgeStyle;rounded=0;orthogonalLoop=1;jettySize=auto;html=1;" edge="1" parent="1" source="nkLRMiGtPnidvyDucg6m-47" target="nkLRMiGtPnidvyDucg6m-51">
          <mxGeometry relative="1" as="geometry" />
        </mxCell>
        <mxCell id="nkLRMiGtPnidvyDucg6m-47" value="mInflatedViewRef.get()是否为空" style="rhombus;whiteSpace=wrap;html=1;" vertex="1" parent="1">
          <mxGeometry x="1430" y="290" width="199" height="60" as="geometry" />
        </mxCell>
        <mxCell id="nkLRMiGtPnidvyDucg6m-48" value="throw IllegalStateException" style="rounded=0;whiteSpace=wrap;html=1;" vertex="1" parent="1">
          <mxGeometry x="1680" y="297.5" width="170" height="45" as="geometry" />
        </mxCell>
        <mxCell id="nkLRMiGtPnidvyDucg6m-50" value="Y" style="text;html=1;align=center;verticalAlign=middle;resizable=0;points=[];autosize=1;strokeColor=none;fillColor=none;" vertex="1" parent="1">
          <mxGeometry x="1629" y="297.5" width="20" height="20" as="geometry" />
        </mxCell>
        <mxCell id="nkLRMiGtPnidvyDucg6m-51" value="设置inflated view的visibility" style="rounded=0;whiteSpace=wrap;html=1;" vertex="1" parent="1">
          <mxGeometry x="1444.5" y="395" width="170" height="45" as="geometry" />
        </mxCell>
        <mxCell id="nkLRMiGtPnidvyDucg6m-53" value="visibility" style="text;html=1;align=center;verticalAlign=middle;resizable=0;points=[];autosize=1;strokeColor=none;fillColor=none;" vertex="1" parent="1">
          <mxGeometry x="1240" y="170" width="60" height="20" as="geometry" />
        </mxCell>
        <mxCell id="nkLRMiGtPnidvyDucg6m-56" value="Y(还未渲染过inflated view)" style="text;html=1;align=center;verticalAlign=middle;resizable=0;points=[];autosize=1;strokeColor=none;fillColor=none;" vertex="1" parent="1">
          <mxGeometry x="1241" y="277.5" width="160" height="20" as="geometry" />
        </mxCell>
        <mxCell id="nkLRMiGtPnidvyDucg6m-60" value="" style="edgeStyle=orthogonalEdgeStyle;rounded=0;orthogonalLoop=1;jettySize=auto;html=1;" edge="1" parent="1" source="nkLRMiGtPnidvyDucg6m-57" target="nkLRMiGtPnidvyDucg6m-59">
          <mxGeometry relative="1" as="geometry" />
        </mxCell>
        <mxCell id="nkLRMiGtPnidvyDucg6m-57" value="visibility是否是&lt;br&gt;VISIBLE或&lt;br&gt;INVISIBLE" style="rhombus;whiteSpace=wrap;html=1;" vertex="1" parent="1">
          <mxGeometry x="1141.5" y="372.5" width="199" height="60" as="geometry" />
        </mxCell>
        <mxCell id="nkLRMiGtPnidvyDucg6m-66" value="" style="edgeStyle=orthogonalEdgeStyle;rounded=0;orthogonalLoop=1;jettySize=auto;html=1;" edge="1" parent="1" source="nkLRMiGtPnidvyDucg6m-59" target="nkLRMiGtPnidvyDucg6m-65">
          <mxGeometry relative="1" as="geometry" />
        </mxCell>
        <mxCell id="nkLRMiGtPnidvyDucg6m-59" value="执行inflate()" style="rounded=0;whiteSpace=wrap;html=1;" vertex="1" parent="1">
          <mxGeometry x="1189" y="477.5" width="104" height="32.5" as="geometry" />
        </mxCell>
        <mxCell id="nkLRMiGtPnidvyDucg6m-63" value="" style="edgeStyle=orthogonalEdgeStyle;rounded=0;orthogonalLoop=1;jettySize=auto;html=1;" edge="1" parent="1" source="nkLRMiGtPnidvyDucg6m-61" target="nkLRMiGtPnidvyDucg6m-57">
          <mxGeometry relative="1" as="geometry" />
        </mxCell>
        <mxCell id="nkLRMiGtPnidvyDucg6m-61" value="设置ViewStub的visibility" style="rounded=0;whiteSpace=wrap;html=1;" vertex="1" parent="1">
          <mxGeometry x="1169" y="317.5" width="144" height="30" as="geometry" />
        </mxCell>
        <mxCell id="nkLRMiGtPnidvyDucg6m-64" value="Y" style="text;html=1;align=center;verticalAlign=middle;resizable=0;points=[];autosize=1;strokeColor=none;fillColor=none;" vertex="1" parent="1">
          <mxGeometry x="1250" y="440" width="20" height="20" as="geometry" />
        </mxCell>
        <mxCell id="nkLRMiGtPnidvyDucg6m-65" value="结束" style="rounded=1;whiteSpace=wrap;html=1;" vertex="1" parent="1">
          <mxGeometry x="1193" y="565" width="96" height="40" as="geometry" />
        </mxCell>
        <mxCell id="nkLRMiGtPnidvyDucg6m-67" value="" style="endArrow=classic;html=1;exitX=0;exitY=0.5;exitDx=0;exitDy=0;entryX=0;entryY=0.5;entryDx=0;entryDy=0;edgeStyle=orthogonalEdgeStyle;" edge="1" parent="1" source="nkLRMiGtPnidvyDucg6m-57" target="nkLRMiGtPnidvyDucg6m-65">
          <mxGeometry width="50" height="50" relative="1" as="geometry">
            <mxPoint x="1140" y="270" as="sourcePoint" />
            <mxPoint x="1190" y="220" as="targetPoint" />
            <Array as="points">
              <mxPoint x="1110" y="403" />
              <mxPoint x="1110" y="585" />
            </Array>
          </mxGeometry>
        </mxCell>
        <mxCell id="nkLRMiGtPnidvyDucg6m-68" value="N" style="text;html=1;align=center;verticalAlign=middle;resizable=0;points=[];autosize=1;strokeColor=none;fillColor=none;" vertex="1" parent="1">
          <mxGeometry x="1121.5" y="375" width="20" height="20" as="geometry" />
        </mxCell>
        <mxCell id="nkLRMiGtPnidvyDucg6m-69" value="" style="endArrow=classic;html=1;exitX=0.544;exitY=1.044;exitDx=0;exitDy=0;exitPerimeter=0;entryX=1;entryY=0.5;entryDx=0;entryDy=0;edgeStyle=orthogonalEdgeStyle;" edge="1" parent="1" source="nkLRMiGtPnidvyDucg6m-51" target="nkLRMiGtPnidvyDucg6m-65">
          <mxGeometry width="50" height="50" relative="1" as="geometry">
            <mxPoint x="1140" y="270" as="sourcePoint" />
            <mxPoint x="1190" y="220" as="targetPoint" />
            <Array as="points">
              <mxPoint x="1537" y="585" />
            </Array>
          </mxGeometry>
        </mxCell>
      </root>
    </mxGraphModel>
  </diagram>
</mxfile>
